<?xml version="1.0" encoding="utf-8"?>
<!-- Generator: Adobe Illustrator 21.0.0, SVG Export Plug-In . SVG Version: 6.00 Build 0)  -->
<svg version="1.1" id="图层_1" xmlns="http://www.w3.org/2000/svg" xmlns:xlink="http://www.w3.org/1999/xlink" x="0px" y="0px"
	 viewBox="0 0 1024 1024" style="enable-background:new 0 0 1024 1024;" xml:space="preserve">
<style type="text/css">
	.st0{fill:#230F0C;}
	.st1{fill:#EA2121;}
	.st2{fill:#F23D3D;}
	.st3{fill:#A51313;}
	.st4{fill:#F77777;}
	.st5{fill:#FCE6E6;}
</style>
<g>
	
		<rect x="292.6" y="509.1" transform="matrix(0.7527 0.6584 -0.6584 0.7527 558.1808 -15.6423)" class="st0" width="14.7" height="451.9"/>
	<g>
		<g>
			<path class="st1" d="M482.9,629.1c-15.7,0-30.9-5.7-42.8-16.1L408,585c-18.4-16.1-26.2-40.8-20.3-64.5c2.5-10,7.4-19.4,14.2-27.3
				c4.8-5.4,10.3-10,16.5-13.6c8.5-4.9,18.2-7.8,28.1-8.5c1.4-0.1,2.9-0.1,4.3-0.1c1.5,0,3,0.1,4.5,0.2c14.3,1,27.5,6.5,38.3,15.9
				l32.1,28c10,8.8,17,20.2,20.2,33.1c0.2,0.6,0.3,1.2,0.4,1.8c1.8,8,2,16.3,0.7,24.4c-1.9,12-7.2,23.2-15.3,32.4
				c-11.4,13.1-27.3,20.9-44.6,22.1C485.8,629.1,484.3,629.1,482.9,629.1z"/>
			<path d="M450.8,473c1.4,0,2.9,0,4.3,0.1c13.3,0.9,26.4,6,37.2,15.4l32.1,28c10,8.8,16.6,20,19.6,32.1c0.2,0.6,0.3,1.2,0.4,1.7
				c1.7,7.8,2,15.8,0.7,23.7c-1.8,11.3-6.7,22.2-14.8,31.5c-11.5,13.1-27.2,20.3-43.3,21.4c-1.4,0.1-2.8,0.1-4.2,0.1
				c-14.7,0-29.5-5.1-41.5-15.6l-32.1-28c-18.3-16.1-25.2-40.4-19.7-62.5c2.3-9.5,6.9-18.6,13.8-26.4c4.7-5.4,10.1-9.8,16-13.1
				c8.4-4.9,17.8-7.6,27.3-8.3C448,473,449.4,473,450.8,473 M450.8,469c-1.5,0-3,0.1-4.5,0.1c-10.2,0.7-20.2,3.7-29,8.8
				c-6.4,3.7-12.1,8.4-17,14c-7.1,8.1-12.1,17.8-14.6,28.1c-6,24.4,2,49.9,21,66.4l32.1,28c12.2,10.7,27.9,16.6,44.1,16.6
				c1.5,0,3-0.1,4.5-0.1c17.9-1.2,34.2-9.3,46-22.7c8.3-9.5,13.7-21,15.7-33.4c1.3-8.4,1.1-16.9-0.7-25.2c-0.1-0.7-0.3-1.3-0.4-1.9
				c-3.3-13.2-10.5-25-20.9-34.1l-32.1-28c-11.1-9.7-24.8-15.4-39.5-16.4C453.9,469.1,452.3,469,450.8,469L450.8,469z"/>
		</g>
		<path class="st2" d="M544.4,550.5c-20.1,20.3-59.6,22.1-96.4-4.7c-28.5-20.8-30.6-48-28.7-64.4c8.4-4.9,17.8-7.6,27.3-8.3
			c16.1-1.1,32.6,4,45.7,15.5l32.1,28C534.9,525.8,541.6,537.8,544.4,550.5z"/>
		<path class="st3" d="M530.3,605.6c-11.5,13.1-27.2,20.3-43.3,21.4c-16.1,1.1-32.6-4-45.7-15.5l-32.1-28
			c-18.3-16.1-25.2-40.4-19.7-62.5c8,40.1,58.7,77.2,93.1,83.4c26.5,4.8,49.6-15.4,62.5-30.3C543.3,585.4,538.4,596.4,530.3,605.6z"
			/>
		<path class="st4" d="M446.4,480.7c0,0,10.3,56.9,76.6,67C522.9,547.7,452.7,553.5,446.4,480.7z"/>
		<path class="st5" d="M397.7,516.1l-0.3-0.5c-0.7-1.5-0.1-3.3,1.4-4l4.5-2.2c1.5-0.7,3.3-0.1,4,1.4l0.3,0.5c0.7,1.5,0.1,3.3-1.4,4
			l-4.5,2.2C400.2,518.2,398.4,517.6,397.7,516.1z"/>
		<path class="st5" d="M497.9,570.8l-0.6-0.1c-1.6-0.2-2.8-1.7-2.6-3.3l0.6-4.9c0.2-1.6,1.7-2.8,3.3-2.6l0.6,0.1
			c1.6,0.2,2.8,1.7,2.6,3.3l-0.6,4.9C501.1,569.8,499.6,571,497.9,570.8z"/>
		<path class="st5" d="M451.1,550.1l-0.3-0.5c-0.8-1.5-0.3-3.3,1.2-4.1l4.4-2.4c1.5-0.8,3.3-0.3,4.1,1.2l0.3,0.5
			c0.8,1.5,0.3,3.3-1.2,4.1l-4.4,2.4C453.7,552,451.9,551.5,451.1,550.1z"/>
		<path class="st5" d="M444.7,596.7l-0.6,0c-1.7-0.1-2.9-1.6-2.8-3.2l0.4-5c0.1-1.7,1.6-2.9,3.2-2.8l0.6,0c1.7,0.1,2.9,1.6,2.8,3.2
			l-0.4,5C447.8,595.6,446.4,596.8,444.7,596.7z"/>
		<path class="st5" d="M541.2,604.6l-0.5,0.3c-1.4,0.9-3.3,0.4-4.1-1l-2.6-4.2c-0.9-1.4-0.4-3.3,1-4.1l0.5-0.3
			c1.4-0.9,3.3-0.4,4.1,1l2.6,4.2C543.1,601.9,542.6,603.8,541.2,604.6z"/>
		<path class="st5" d="M468.4,491.1l0.3-0.5c0.8-1.5,2.6-2.1,4-1.3l4.4,2.3c1.5,0.8,2.1,2.6,1.3,4l-0.3,0.5c-0.8,1.5-2.6,2.1-4,1.3
			l-4.4-2.3C468.2,494.4,467.6,492.6,468.4,491.1z"/>
		<path class="st5" d="M537.6,529.1l0,0.6c0.1,1.7-1.1,3.1-2.8,3.2l-5,0.3c-1.7,0.1-3.1-1.1-3.2-2.8l0-0.6c-0.1-1.7,1.1-3.1,2.8-3.2
			l5-0.3C536,526.2,537.4,527.5,537.6,529.1z"/>
		<path class="st5" d="M396.2,553.5l-0.3,0.5c-0.9,1.4-2.7,1.9-4.1,1l-4.3-2.6c-1.4-0.9-1.9-2.7-1-4.1l0.3-0.5
			c0.9-1.4,2.7-1.9,4.1-1l4.3,2.6C396.6,550.2,397.1,552.1,396.2,553.5z"/>
		<path class="st5" d="M437.6,485.7l-0.6,0c-1.7-0.1-2.9-1.6-2.8-3.2l0.4-5c0.1-1.7,1.6-2.9,3.2-2.8l0.6,0c1.7,0.1,2.9,1.6,2.8,3.2
			l-0.4,5C440.7,484.6,439.3,485.8,437.6,485.7z"/>
		<path class="st3" d="M544,548.7c-10.1-0.4-36.4-5.8-61.2-27.5c-21.4-18.7-26.5-38.4-27.6-48.1c13.3,0.9,26.4,6,37.2,15.4l32.1,28
			C534.4,525.4,541,536.7,544,548.7z"/>
	</g>
	<g>
		<g>
			<path class="st1" d="M556.5,544.9c-15.7,0-30.9-5.7-42.8-16.1l-32.1-28c-18.4-16.1-26.2-40.8-20.3-64.5
				c2.5-10,7.4-19.4,14.2-27.3c4.8-5.4,10.3-10,16.5-13.6c8.5-4.9,18.2-7.8,28.1-8.5c1.4-0.1,2.9-0.1,4.3-0.1
				c15.8,0,31,5.7,42.8,16.1l32.1,28c10.5,9.2,17.7,21.3,20.7,34.9c0.3,1.4,0.6,2.8,0.8,4.1c1,6.7,1,13.6-0.1,20.3
				c-1.9,12-7.2,23.2-15.3,32.4c-11.4,13.1-27.3,20.9-44.6,22.1C559.4,544.9,557.9,544.9,556.5,544.9z"/>
			<path d="M524.5,388.8C524.5,388.8,524.5,388.8,524.5,388.8c14.8,0,29.6,5.1,41.5,15.6l32.1,28c10.5,9.2,17.3,21.1,20,33.8
				c0.3,1.3,0.5,2.7,0.8,4c1,6.5,1,13.1-0.1,19.7c-1.8,11.3-6.7,22.2-14.8,31.5c-11.5,13.1-27.2,20.3-43.3,21.4
				c-1.4,0.1-2.8,0.1-4.2,0.1c-14.7,0-29.5-5.1-41.5-15.6l-32.1-28c-18.3-16.1-25.2-40.4-19.7-62.5c2.3-9.5,6.9-18.6,13.8-26.4
				c4.7-5.4,10.1-9.8,16-13.1c8.4-4.9,17.8-7.6,27.3-8.3C521.6,388.9,523.1,388.8,524.5,388.8 M524.5,384.9c-1.5,0-3,0-4.5,0.1
				c-10.2,0.7-20.2,3.7-29,8.8c-6.4,3.7-12.1,8.4-17,14c-7.1,8.1-12.1,17.8-14.6,28.1c-6,24.4,2,49.9,21,66.4l32.1,28
				c12.2,10.7,27.9,16.6,44.1,16.6c1.5,0,3-0.1,4.5-0.1c17.9-1.2,34.2-9.3,46-22.7c8.3-9.5,13.7-21,15.7-33.4
				c1.1-6.9,1.1-14,0.1-20.9c-0.2-1.4-0.5-2.8-0.8-4.3c-3.1-14-10.5-26.5-21.3-36l-32.1-28C556.4,390.8,540.7,384.9,524.5,384.9
				L524.5,384.9L524.5,384.9z"/>
		</g>
		<path class="st2" d="M618.1,466.3c-20.1,20.3-59.6,22.1-96.4-4.7c-28.5-20.8-30.6-48-28.7-64.4c8.4-4.9,17.8-7.6,27.3-8.3
			c16.1-1.1,32.6,4,45.7,15.5l32.1,28C608.6,441.7,615.3,453.6,618.1,466.3z"/>
		<path class="st3" d="M604,521.4c-11.5,13.1-27.2,20.3-43.3,21.4c-16.1,1.1-32.6-4-45.7-15.5l-32.1-28
			c-18.3-16.1-25.2-40.4-19.7-62.5c8,40.1,58.7,77.2,93.1,83.4c26.5,4.8,49.6-15.4,62.5-30.3C617,501.3,612.1,512.2,604,521.4z"/>
		<path class="st4" d="M520,396.5c0,0,10.3,56.9,76.6,67C596.5,463.5,526.4,469.3,520,396.5z"/>
		<path class="st5" d="M471.3,432l-0.3-0.5c-0.7-1.5-0.1-3.3,1.4-4l4.5-2.2c1.5-0.7,3.3-0.1,4,1.4l0.3,0.5c0.7,1.5,0.1,3.3-1.4,4
			l-4.5,2.2C473.8,434.1,472.1,433.4,471.3,432z"/>
		<path class="st5" d="M571.6,486.6l-0.6-0.1c-1.6-0.2-2.8-1.7-2.6-3.3l0.6-4.9c0.2-1.6,1.7-2.8,3.3-2.6l0.6,0.1
			c1.6,0.2,2.8,1.7,2.6,3.3l-0.6,4.9C574.7,485.6,573.2,486.8,571.6,486.6z"/>
		<path class="st5" d="M524.7,465.9l-0.3-0.5c-0.8-1.5-0.3-3.3,1.2-4.1l4.4-2.4c1.5-0.8,3.3-0.3,4.1,1.2l0.3,0.5
			c0.8,1.5,0.3,3.3-1.2,4.1l-4.4,2.4C527.4,467.9,525.5,467.3,524.7,465.9z"/>
		<path class="st5" d="M518.3,512.5l-0.6,0c-1.7-0.1-2.9-1.6-2.8-3.2l0.4-5c0.1-1.7,1.6-2.9,3.2-2.8l0.6,0c1.7,0.1,2.9,1.6,2.8,3.2
			l-0.4,5C521.4,511.4,520,512.7,518.3,512.5z"/>
		<path class="st5" d="M614.8,520.5l-0.5,0.3c-1.4,0.9-3.3,0.4-4.1-1l-2.6-4.2c-0.9-1.4-0.4-3.3,1-4.1l0.5-0.3
			c1.4-0.9,3.3-0.4,4.1,1l2.6,4.2C616.7,517.8,616.3,519.6,614.8,520.5z"/>
		<path class="st5" d="M542,406.9l0.3-0.5c0.8-1.5,2.6-2.1,4-1.3l4.4,2.3c1.5,0.8,2.1,2.6,1.3,4l-0.3,0.5c-0.8,1.5-2.6,2.1-4,1.3
			l-4.4-2.3C541.8,410.2,541.2,408.4,542,406.9z"/>
		<path class="st5" d="M611.2,445l0,0.6c0.1,1.7-1.1,3.1-2.8,3.2l-5,0.3c-1.7,0.1-3.1-1.1-3.2-2.8l0-0.6c-0.1-1.7,1.1-3.1,2.8-3.2
			l5-0.3C609.7,442.1,611.1,443.3,611.2,445z"/>
		<path class="st5" d="M469.9,469.3l-0.3,0.5c-0.9,1.4-2.7,1.9-4.1,1l-4.3-2.6c-1.4-0.9-1.9-2.7-1-4.1l0.3-0.5
			c0.9-1.4,2.7-1.9,4.1-1l4.3,2.6C470.3,466.1,470.7,467.9,469.9,469.3z"/>
		<path class="st5" d="M511.3,401.5l-0.6,0c-1.7-0.1-2.9-1.6-2.8-3.2l0.4-5c0.1-1.7,1.6-2.9,3.2-2.8l0.6,0c1.7,0.1,2.9,1.6,2.8,3.2
			l-0.4,5C514.3,400.4,512.9,401.6,511.3,401.5z"/>
		<path class="st3" d="M618.8,470.3c-14.8-5.3-39.8-16.1-60.9-33.5c-21.9-18.1-30.3-37.4-33.4-47.9c14.7,0,29.5,5.1,41.4,15.6
			l32.1,28c10.5,9.2,17.3,21.1,20,33.8C618.4,467.6,618.6,469,618.8,470.3z"/>
	</g>
	<g>
		<g>
			<path class="st1" d="M627.9,463.3c-15.7,0-30.9-5.7-42.8-16.1l-32.1-28c-18.4-16.1-26.2-40.8-20.3-64.5
				c2.5-10,7.4-19.4,14.2-27.3c4.8-5.4,10.3-10,16.5-13.6c8.5-4.9,18.2-7.8,28.1-8.5c1.4-0.1,2.9-0.1,4.4-0.1c1.3,0,2.7,0,4,0.1
				c14.4,0.9,27.9,6.4,38.8,16l32.1,28c10.4,9.1,17.5,21,20.6,34.4c0,0.1,0.1,0.2,0.1,0.4c1.8,8.1,2,16.3,0.7,24.5
				c-1.9,12-7.2,23.2-15.3,32.4c-11.4,13.1-27.3,20.9-44.6,22.1C630.9,463.2,629.4,463.3,627.9,463.3z"/>
			<path d="M595.9,307.1c1.3,0,2.6,0,3.9,0.1c13.4,0.8,26.7,5.9,37.6,15.5l32.1,28c10.4,9.1,17.1,20.9,19.9,33.4
				c0,0.1,0.1,0.3,0.1,0.4c1.7,7.8,2,15.8,0.7,23.7c-1.8,11.3-6.7,22.2-14.8,31.5c-11.5,13.1-27.2,20.3-43.3,21.4
				c-1.4,0.1-2.8,0.1-4.2,0.1c-14.7,0-29.5-5.1-41.5-15.6l-32.1-28c-18.3-16.1-25.2-40.4-19.7-62.5c2.3-9.5,6.9-18.6,13.8-26.4
				c4.7-5.4,10.1-9.8,16-13.1c8.4-4.9,17.8-7.6,27.3-8.3C593.1,307.2,594.5,307.1,595.9,307.1 M595.9,303.2c-1.5,0-3,0.1-4.5,0.1
				c-10.2,0.7-20.2,3.7-29,8.8c-6.4,3.7-12.1,8.4-17,14c-7.1,8.1-12.1,17.8-14.6,28.1c-6,24.4,2,49.9,21,66.4l32.1,28
				c12.2,10.7,27.9,16.6,44.1,16.6c1.5,0,3-0.1,4.5-0.1c17.9-1.2,34.2-9.3,46-22.7c8.3-9.5,13.7-21,15.7-33.4
				c1.3-8.4,1.1-16.9-0.7-25.2l0-0.1c0-0.1-0.1-0.3-0.1-0.4c-3.1-13.8-10.5-26.1-21.2-35.4l-32.1-28c-11.3-9.8-25.1-15.5-40-16.4
				C598.7,303.2,597.3,303.2,595.9,303.2L595.9,303.2z"/>
		</g>
		<path class="st2" d="M689.5,384.6c-20.1,20.3-59.6,22.1-96.4-4.7c-28.5-20.8-30.6-48-28.7-64.4c8.4-4.9,17.8-7.6,27.3-8.3
			c16.1-1.1,32.6,4,45.7,15.5l32.1,28C680,360,686.7,371.9,689.5,384.6z"/>
		<path class="st3" d="M675.4,439.7c-11.5,13.1-27.2,20.3-43.3,21.4c-16.1,1.1-32.6-4-45.7-15.5l-32.1-28
			c-18.3-16.1-25.2-40.4-19.7-62.5c8,40.1,58.7,77.2,93.1,83.4c26.5,4.8,49.6-15.4,62.5-30.3C688.4,419.6,683.5,430.5,675.4,439.7z"
			/>
		<path class="st4" d="M591.4,314.8c0,0,10.3,56.9,76.6,67C668,381.8,597.8,387.6,591.4,314.8z"/>
		<path class="st5" d="M542.8,350.3l-0.3-0.5c-0.7-1.5-0.1-3.3,1.4-4l4.5-2.2c1.5-0.7,3.3-0.1,4,1.4l0.3,0.5c0.7,1.5,0.1,3.3-1.4,4
			l-4.5,2.2C545.3,352.4,543.5,351.8,542.8,350.3z"/>
		<path class="st5" d="M643,404.9l-0.6-0.1c-1.6-0.2-2.8-1.7-2.6-3.3l0.6-4.9c0.2-1.6,1.7-2.8,3.3-2.6l0.6,0.1
			c1.6,0.2,2.8,1.7,2.6,3.3l-0.6,4.9C646.2,404,644.7,405.1,643,404.9z"/>
		<path class="st5" d="M596.2,384.2l-0.3-0.5c-0.8-1.5-0.3-3.3,1.2-4.1l4.4-2.4c1.5-0.8,3.3-0.3,4.1,1.2l0.3,0.5
			c0.8,1.5,0.3,3.3-1.2,4.1l-4.4,2.4C598.8,386.2,597,385.6,596.2,384.2z"/>
		<path class="st5" d="M589.8,430.9l-0.6,0c-1.7-0.1-2.9-1.6-2.8-3.2l0.4-5c0.1-1.7,1.6-2.9,3.2-2.8l0.6,0c1.7,0.1,2.9,1.6,2.8,3.2
			l-0.4,5C592.9,429.7,591.5,431,589.8,430.9z"/>
		<path class="st5" d="M686.3,438.8l-0.5,0.3c-1.4,0.9-3.3,0.4-4.1-1l-2.6-4.2c-0.9-1.4-0.4-3.3,1-4.1l0.5-0.3
			c1.4-0.9,3.3-0.4,4.1,1l2.6,4.2C688.2,436.1,687.7,437.9,686.3,438.8z"/>
		<path class="st5" d="M613.5,325.2l0.3-0.5c0.8-1.5,2.6-2.1,4-1.3l4.4,2.3c1.5,0.8,2.1,2.6,1.3,4l-0.3,0.5c-0.8,1.5-2.6,2.1-4,1.3
			l-4.4-2.3C613.3,328.5,612.7,326.7,613.5,325.2z"/>
		<path class="st5" d="M682.7,363.3l0,0.6c0.1,1.7-1.1,3.1-2.8,3.2l-5,0.3c-1.7,0.1-3.1-1.1-3.2-2.8l0-0.6c-0.1-1.7,1.1-3.1,2.8-3.2
			l5-0.3C681.1,360.4,682.5,361.6,682.7,363.3z"/>
		<path class="st5" d="M541.3,387.6l-0.3,0.5c-0.9,1.4-2.7,1.9-4.1,1l-4.3-2.6c-1.4-0.9-1.9-2.7-1-4.1l0.3-0.5
			c0.9-1.4,2.7-1.9,4.1-1l4.3,2.6C541.7,384.4,542.2,386.2,541.3,387.6z"/>
		<path class="st5" d="M582.7,319.8l-0.6,0c-1.7-0.1-2.9-1.6-2.8-3.2l0.4-5c0.1-1.7,1.6-2.9,3.2-2.8l0.6,0c1.7,0.1,2.9,1.6,2.8,3.2
			l-0.4,5C585.8,318.7,584.4,319.9,582.7,319.8z"/>
		<path class="st3" d="M689.4,384.2c-14.6-4.1-42.7-15.8-63.9-32.5c-18.3-14.4-24-33.9-25.7-44.5c13.4,0.8,26.7,5.9,37.6,15.5
			l32.1,28C679.9,359.9,686.6,371.6,689.4,384.2z"/>
	</g>
	<g>
		<g>
			<path class="st1" d="M700.5,380.3c-15.7,0-30.9-5.7-42.8-16.1l-32.1-28c-18.4-16.1-26.2-40.8-20.3-64.5
				c2.5-10,7.4-19.4,14.2-27.3c4.8-5.4,10.3-10,16.5-13.6c8.5-4.9,18.2-7.8,28.1-8.5c1.4-0.1,2.9-0.1,4.4-0.1c0.9,0,1.8,0,2.7,0.1
				c14.7,0.6,29,6.3,40.1,16l32.1,28c10.2,8.9,17.3,20.6,20.4,33.8c0.1,0.4,0.2,0.7,0.2,1.1c1.8,8.1,2,16.3,0.7,24.4
				c-1.9,12-7.2,23.2-15.3,32.4c-11.4,13.1-27.3,20.9-44.6,22.1C703.4,380.3,701.9,380.3,700.5,380.3z"/>
			<path d="M668.5,224.2c0.9,0,1.8,0,2.6,0.1c13.9,0.6,27.6,5.7,38.9,15.5l32.1,28c10.2,9,16.9,20.5,19.8,32.8
				c0.1,0.4,0.2,0.7,0.2,1.1c1.7,7.8,2,15.8,0.7,23.7c-1.8,11.3-6.7,22.2-14.8,31.5c-11.5,13.1-27.2,20.3-43.3,21.4
				c-1.4,0.1-2.8,0.1-4.2,0.1c-14.7,0-29.5-5.1-41.5-15.6l-32.1-28c-18.3-16.1-25.2-40.4-19.7-62.5c2.3-9.5,6.9-18.6,13.8-26.4
				c4.7-5.4,10.1-9.8,16-13.1c8.4-4.9,17.8-7.6,27.3-8.3C665.6,224.3,667.1,224.2,668.5,224.2 M668.5,220.3v3.9V220.3L668.5,220.3
				c-1.5,0-3,0.1-4.5,0.1c-10.2,0.7-20.2,3.7-29,8.8c-6.4,3.7-12.1,8.4-17,14c-7.1,8.1-12.1,17.8-14.6,28.1c-6,24.4,2,49.9,21,66.4
				l32.1,28c12.2,10.7,27.9,16.6,44.1,16.6c1.5,0,3-0.1,4.5-0.1c17.9-1.2,34.2-9.3,46-22.7c8.3-9.5,13.7-21,15.7-33.4
				c1.3-8.4,1.1-16.9-0.7-25.2c-0.1-0.4-0.2-0.8-0.3-1.1c-3.2-13.6-10.5-25.6-21-34.8l-32.1-28c-11.5-10-26.1-15.9-41.3-16.5
				C670.3,220.3,669.4,220.3,668.5,220.3L668.5,220.3z"/>
		</g>
		<path class="st2" d="M762.1,301.7c-20.1,20.3-59.6,22.1-96.4-4.7c-28.5-20.8-30.6-48-28.7-64.4c8.4-4.9,17.8-7.6,27.3-8.3
			c16.1-1.1,32.6,4,45.7,15.5l32.1,28C752.5,277.1,759.3,289,762.1,301.7z"/>
		<path class="st3" d="M748,356.8c-11.5,13.1-27.2,20.3-43.3,21.4c-16.1,1.1-32.6-4-45.7-15.5l-32.1-28
			c-18.3-16.1-25.2-40.4-19.7-62.5c8,40.1,58.7,77.2,93.1,83.4c26.5,4.8,49.6-15.4,62.5-30.3C760.9,336.7,756,347.6,748,356.8z"/>
		<path class="st4" d="M664,231.9c0,0,10.3,56.9,76.6,67C740.5,298.9,670.4,304.7,664,231.9z"/>
		<path class="st5" d="M615.3,267.3l-0.3-0.5c-0.7-1.5-0.1-3.3,1.4-4l4.5-2.2c1.5-0.7,3.3-0.1,4,1.4l0.3,0.5c0.7,1.5,0.1,3.3-1.4,4
			l-4.5,2.2C617.8,269.5,616,268.8,615.3,267.3z"/>
		<path class="st5" d="M715.6,322L715,322c-1.6-0.2-2.8-1.7-2.6-3.3l0.6-4.9c0.2-1.6,1.7-2.8,3.3-2.6l0.6,0.1
			c1.6,0.2,2.8,1.7,2.6,3.3l-0.6,4.9C718.7,321,717.2,322.2,715.6,322z"/>
		<path class="st5" d="M668.7,301.3l-0.3-0.5c-0.8-1.5-0.3-3.3,1.2-4.1l4.4-2.4c1.5-0.8,3.3-0.3,4.1,1.2l0.3,0.5
			c0.8,1.5,0.3,3.3-1.2,4.1l-4.4,2.4C671.3,303.3,669.5,302.7,668.7,301.3z"/>
		<path class="st5" d="M662.3,347.9l-0.6,0c-1.7-0.1-2.9-1.6-2.8-3.2l0.4-5c0.1-1.7,1.6-2.9,3.2-2.8l0.6,0c1.7,0.1,2.9,1.6,2.8,3.2
			l-0.4,5C665.4,346.8,664,348.1,662.3,347.9z"/>
		<path class="st5" d="M758.8,355.9l-0.5,0.3c-1.4,0.9-3.3,0.4-4.1-1l-2.6-4.2c-0.9-1.4-0.4-3.3,1-4.1l0.5-0.3
			c1.4-0.9,3.3-0.4,4.1,1l2.6,4.2C760.7,353.2,760.2,355,758.8,355.9z"/>
		<path class="st5" d="M686,242.3l0.3-0.5c0.8-1.5,2.6-2.1,4-1.3l4.4,2.3c1.5,0.8,2.1,2.6,1.3,4l-0.3,0.5c-0.8,1.5-2.6,2.1-4,1.3
			l-4.4-2.3C685.8,245.6,685.2,243.8,686,242.3z"/>
		<path class="st5" d="M755.2,280.4l0,0.6c0.1,1.7-1.1,3.1-2.8,3.2l-5,0.3c-1.7,0.1-3.1-1.1-3.2-2.8l0-0.6c-0.1-1.7,1.1-3.1,2.8-3.2
			l5-0.3C753.6,277.5,755.1,278.7,755.2,280.4z"/>
		<path class="st5" d="M613.8,304.7l-0.3,0.5c-0.9,1.4-2.7,1.9-4.1,1l-4.3-2.6c-1.4-0.9-1.9-2.7-1-4.1l0.3-0.5
			c0.9-1.4,2.7-1.9,4.1-1l4.3,2.6C614.3,301.5,614.7,303.3,613.8,304.7z"/>
		<path class="st5" d="M655.2,236.9l-0.6,0c-1.7-0.1-2.9-1.6-2.8-3.2l0.4-5c0.1-1.7,1.6-2.9,3.2-2.8l0.6,0c1.7,0.1,2.9,1.6,2.8,3.2
			l-0.4,5C658.3,235.8,656.9,237,655.2,236.9z"/>
		<path class="st3" d="M761.8,300.6c-10.3-2.4-29.4-7.9-57.6-28.6c-22.1-16.2-30.3-37.9-33.2-47.8c13.9,0.6,27.6,5.7,38.9,15.5
			l32.1,28C752.3,276.8,758.9,288.3,761.8,300.6z"/>
	</g>
	<g>
		<g>
			<path class="st1" d="M773,297.4c-15.7,0-30.9-5.7-42.8-16.1l-32.1-28c-18.4-16.1-26.2-40.8-20.3-64.5c2.5-10,7.4-19.4,14.2-27.3
				c4.8-5.4,10.3-10,16.5-13.6c8.5-4.9,18.2-7.8,28.1-8.5c1.4-0.1,2.9-0.1,4.4-0.1c15.7,0,30.9,5.7,42.8,16.1l32.1,28
				c10.5,9.2,17.7,21.3,20.7,34.9c1.8,8.1,2,16.3,0.7,24.4c-1.9,12-7.2,23.2-15.3,32.4c-11.4,13.1-27.3,20.9-44.6,22.1
				C776,297.3,774.5,297.4,773,297.4z"/>
			<path d="M741,141.3c14.7,0,29.5,5.1,41.5,15.6l32.1,28c10.5,9.2,17.3,21.1,20,33.8c1.7,7.8,2,15.8,0.7,23.7
				c-1.8,11.3-6.7,22.2-14.8,31.5c-11.5,13.1-27.2,20.3-43.3,21.4c-1.4,0.1-2.8,0.1-4.2,0.1c-14.7,0-29.5-5.1-41.5-15.6l-32.1-28
				c-18.3-16.1-25.2-40.4-19.7-62.5c2.3-9.5,6.9-18.6,13.8-26.4c4.7-5.4,10.1-9.8,16-13.1c8.4-4.9,17.8-7.6,27.3-8.3
				C738.2,141.3,739.6,141.3,741,141.3 M741,137.3v3.9V137.3L741,137.3c-1.5,0-3,0.1-4.5,0.1c-10.2,0.7-20.2,3.7-29,8.8
				c-6.4,3.7-12.1,8.4-17,14c-7.1,8.1-12.1,17.8-14.6,28.1c-6,24.4,2,49.9,21,66.4l32.1,28c12.2,10.7,27.9,16.6,44.1,16.6
				c1.5,0,3-0.1,4.5-0.1c17.9-1.2,34.2-9.3,46-22.7c8.3-9.5,13.7-21,15.7-33.4c1.3-8.4,1.1-16.9-0.7-25.2c-3.1-14-10.5-26.5-21.3-36
				l-32.1-28C772.9,143.2,757.2,137.3,741,137.3L741,137.3z"/>
		</g>
		<path class="st2" d="M834.6,218.7c-20.1,20.3-59.6,22.1-96.4-4.7c-28.5-20.8-30.6-48-28.7-64.4c8.4-4.9,17.8-7.6,27.3-8.3
			c16.1-1.1,32.6,4,45.7,15.5l32.1,28C825.1,194.1,831.8,206,834.6,218.7z"/>
		<path class="st3" d="M820.5,273.9c-11.5,13.1-27.2,20.3-43.3,21.4c-16.1,1.1-32.6-4-45.7-15.5l-32.1-28
			c-18.3-16.1-25.2-40.4-19.7-62.5c8,40.1,58.7,77.2,93.1,83.4c26.5,4.8,49.6-15.4,62.5-30.3C833.5,253.7,828.6,264.6,820.5,273.9z"
			/>
		<path class="st4" d="M736.5,149c0,0,10.3,56.9,76.6,67C813.1,215.9,742.9,221.8,736.5,149z"/>
		<path class="st5" d="M687.9,184.4l-0.3-0.5c-0.7-1.5-0.1-3.3,1.4-4l4.5-2.2c1.5-0.7,3.3-0.1,4,1.4l0.3,0.5c0.7,1.5,0.1,3.3-1.4,4
			l-4.5,2.2C690.4,186.5,688.6,185.9,687.9,184.4z"/>
		<path class="st5" d="M788.1,239.1l-0.6-0.1c-1.6-0.2-2.8-1.7-2.6-3.3l0.6-4.9c0.2-1.6,1.7-2.8,3.3-2.6l0.6,0.1
			c1.6,0.2,2.8,1.7,2.6,3.3l-0.6,4.9C791.3,238.1,789.8,239.3,788.1,239.1z"/>
		<path class="st5" d="M741.3,218.3l-0.3-0.5c-0.8-1.5-0.3-3.3,1.2-4.1l4.4-2.4c1.5-0.8,3.3-0.3,4.1,1.2l0.3,0.5
			c0.8,1.5,0.3,3.3-1.2,4.1l-4.4,2.4C743.9,220.3,742.1,219.8,741.3,218.3z"/>
		<path class="st5" d="M734.9,265l-0.6,0c-1.7-0.1-2.9-1.6-2.8-3.2l0.4-5c0.1-1.7,1.6-2.9,3.2-2.8l0.6,0c1.7,0.1,2.9,1.6,2.8,3.2
			l-0.4,5C738,263.9,736.6,265.1,734.9,265z"/>
		<path class="st5" d="M831.4,272.9l-0.5,0.3c-1.4,0.9-3.3,0.4-4.1-1l-2.6-4.2c-0.9-1.4-0.4-3.3,1-4.1l0.5-0.3
			c1.4-0.9,3.3-0.4,4.1,1l2.6,4.2C833.2,270.2,832.8,272,831.4,272.9z"/>
		<path class="st5" d="M758.6,159.4l0.3-0.5c0.8-1.5,2.6-2.1,4-1.3l4.4,2.3c1.5,0.8,2.1,2.6,1.3,4l-0.3,0.5c-0.8,1.5-2.6,2.1-4,1.3
			l-4.4-2.3C758.4,162.6,757.8,160.8,758.6,159.4z"/>
		<path class="st5" d="M827.7,197.4l0,0.6c0.1,1.7-1.1,3.1-2.8,3.2l-5,0.3c-1.7,0.1-3.1-1.1-3.2-2.8l0-0.6c-0.1-1.7,1.1-3.1,2.8-3.2
			l5-0.3C826.2,194.5,827.6,195.8,827.7,197.4z"/>
		<path class="st5" d="M686.4,221.8l-0.3,0.5c-0.9,1.4-2.7,1.9-4.1,1l-4.3-2.6c-1.4-0.9-1.9-2.7-1-4.1l0.3-0.5
			c0.9-1.4,2.7-1.9,4.1-1l4.3,2.6C686.8,218.5,687.3,220.4,686.4,221.8z"/>
		<path class="st5" d="M727.8,154l-0.6,0c-1.7-0.1-2.9-1.6-2.8-3.2l0.4-5c0.1-1.7,1.6-2.9,3.2-2.8l0.6,0c1.7,0.1,2.9,1.6,2.8,3.2
			l-0.4,5C730.9,152.8,729.5,154.1,727.8,154z"/>
	</g>
</g>
</svg>
