<?xml version="1.0" encoding="utf-8"?>
<!-- Generator: Adobe Illustrator 21.0.0, SVG Export Plug-In . SVG Version: 6.00 Build 0)  -->
<svg version="1.1" id="图层_1" xmlns="http://www.w3.org/2000/svg" xmlns:xlink="http://www.w3.org/1999/xlink" x="0px" y="0px"
	 viewBox="0 0 1024 1024" style="enable-background:new 0 0 1024 1024;" xml:space="preserve">
<style type="text/css">
	.st0{fill:#D82727;}
	.st1{fill:#E86060;}
	.st2{fill:#9E1919;}
	.st3{fill:#F7C4C4;}
</style>
<g>
	<g>
		<path class="st0" d="M539.9,876.2c-45.9,0-66.1-27.9-74.9-51.4c-8.4-22.3-7.8-43.4-7.8-44.3l0-0.4l75.7-330.5l105.6,50l0.5,1.8
			c0,0.1,2.6,8.8,6.2,23.2c1.4,5.5,2.7,11,3.9,16.5c2.1,9.1,4,18.3,5.8,27.3c10.4,52.1,20.8,127.3,11.5,189.5
			c-3.7,24.7-10.3,45.7-19.6,62.4c-12.6,22.7-30.5,38.1-53.2,45.8C573.8,872.8,555.7,876.2,539.9,876.2z"/>
		<g>
			<path d="M535.9,455.8l99,46.9c0,0,2.5,8.5,6.1,23c1.2,4.8,2.5,10.3,3.9,16.4c1.9,8.1,3.8,17.3,5.8,27.2
				c10.4,52.5,20.6,126.8,11.4,188.1c-3.4,22.7-9.4,43.6-19.1,61c-11.4,20.5-27.8,36.1-50.8,43.8c-20.5,6.9-37.8,9.8-52.4,9.8
				c-42.5,0-62-24.8-70.9-48.6c-8.2-21.8-7.5-42.6-7.5-42.6L535.9,455.8 M529.9,443.5l-2.4,10.4l-74.5,324.9l-0.2,0.8l0,0.8
				c0,0.9-0.6,22.8,8.1,45.9c5.8,15.4,14.4,27.8,25.5,36.8c14.1,11.5,32.1,17.3,53.4,17.3c16.3,0,34.9-3.5,55.1-10.3
				c23.7-8,42.4-24.1,55.5-47.8c9.5-17.2,16.3-38.6,20.1-63.8c9.4-62.8-1.1-138.5-11.5-191c-1.8-9.1-3.8-18.3-5.9-27.5
				c-1.2-5.5-2.6-11-3.9-16.6c-3.6-14.5-6.1-23-6.2-23.4l-1.1-3.7l-3.5-1.6l-99-46.9L529.9,443.5L529.9,443.5z"/>
		</g>
	</g>
	<path class="st1" d="M662.1,757.3c-6.1,15.6-11.9,27.9-15.8,33.1c-12.9,17.2-36,11.3-36,11.3c-19,14.9-38.1,8.9-40.5,8
		c1.9-4,8.1-18.3,27.2-63.6c33.7-80,10.6-215.2,10.6-215.2l37.3,11.1C656.6,593.2,673,684.4,662.1,757.3z"/>
	<path class="st2" d="M644.9,542.1c1.9,8.1,3.8,17.3,5.8,27.2c-29.5-9.7-56.6-40.2-56.6-40.2l46.8-3.5
		C642.2,530.5,643.5,536,644.9,542.1z"/>
	<path class="st2" d="M592.9,521.6c0,0,0.5,2.7,1.2,7.5c3.3,21.3,11.1,84.9,1.9,153.1c-11.4,83.8-48.8,145.9-82.3,154
		s-28.5-16.4-28.5-16.4S546.3,490,554,496.4c7.8,6.3,39.4,27.9,39.4,27.9L592.9,521.6z"/>
	<path class="st2" d="M643.1,818.3c-11.4,20.5-27.8,36.1-50.8,43.8c-80.2,27-111.3-6.8-123.3-38.7l33.8-4.8c0,0,34.1,30,87.8,13.7
		c0,0-8.8,12.2-31.2,14.2C559.3,846.5,593.5,851.9,643.1,818.3z"/>
	<g>
		<path class="st0" d="M465.4,826.9c-20.3,0-38.4-9-51.1-25.4c-11.8-15.2-17-34.5-13.2-49.2c2.6-10,8.1-26.4,15.2-47.2
			c16.7-49.4,39.6-117.1,45.1-164.4l0-0.1c0.3-2.2,0.5-4.1,0.6-5.9c2.4-27.4,17.5-52.5,45.1-74.7c8.3-6.7,17.6-12.9,27.6-18.6
			c12.9-7.3,22.2-10.9,22.6-11.1l1-0.4l13.7,1.6l0.4,3.3c0,0.3,4.3,33.8,7,79.9c2.5,43,4.1,106-2.3,162
			c-7.5,64.8-24.1,107.1-49.5,125.9c-14.1,10.4-28,17.6-41.3,21.3C479.2,825.9,472.2,826.9,465.4,826.9z"/>
		<g>
			<path d="M558.9,434.4l9.3,1.1c0,0,4.2,33.1,6.9,79.6c2.7,46.8,3.9,107.3-2.3,161.2c-6.3,54.6-20.2,102.5-47.8,123
				c-14.4,10.7-27.8,17.2-39.9,20.6c-7,1.9-13.6,2.8-19.8,2.8c-43.9,0-66.5-44.5-60.1-69.2c8.6-33.3,52.5-144.3,60.4-212.1l0-0.1
				c0.2-2.1,0.5-4.1,0.6-6.1c2.7-31.1,22.8-55,43.5-71.7c9.4-7.5,18.9-13.6,27-18.2C549.6,438,558.9,434.4,558.9,434.4 M557.8,425.6
				l-2,0.8c-0.4,0.2-10,3.9-23.2,11.4c-10.1,5.7-19.6,12.1-28.1,19c-12.5,10.1-22.7,21-30.3,32.4c-9.5,14.3-15,29.5-16.4,45.3
				c-0.1,1.8-0.3,3.7-0.6,5.8l0,0.1c-5.4,46.9-29.2,117.1-44.9,163.5c-7.1,20.9-12.6,37.3-15.3,47.5c-4.1,15.9,1.4,36.7,13.9,52.9
				c13.5,17.4,32.8,27,54.4,27c7.1,0,14.5-1.1,22-3.1c13.8-3.8,28.2-11.2,42.7-22c14.3-10.6,26-28.3,34.8-52.6
				c7.4-20.4,12.9-46.1,16.3-76.2c6.5-56.3,4.9-119.6,2.3-162.7c-2.7-46.3-7-79.8-7-80.2l-0.8-6.6l-6.6-0.8l-9.3-1.1L557.8,425.6
				L557.8,425.6z"/>
		</g>
	</g>
	<path class="st1" d="M572.8,676.3c-13.3,55.6-35.1,110.6-61.2,113.7c-19.4,2.3-34.8-16.4-21.3-86.5c13.5-70,74.4-178.5,74.4-178.5
		l2.4-10.9l8,1C577.9,561.9,579,622.3,572.8,676.3z"/>
	<path class="st2" d="M549.6,511.7c0,0-0.7,1.8-2,4.9c-8.6,20.8-29.6,49.1-90.1,146.4c-21.4,45.3-58.5,135.1,27.7,156.8l0,0
		c-56.7,15.7-87.1-38.2-79.8-66.4c8.6-33.3,52.5-144.3,60.4-212.1l0-0.1c0.5-4,25.7-46.9,44.1-77.8c10.7-17.9,19.1-31.8,19.1-31.8
		s3.5,6,7.9,13.7c7,12.1,16.2,28.3,17.1,30.2C555.4,478.6,549.6,511.7,549.6,511.7z"/>
	<g>
		<path class="st0" d="M781.7,575.8c-9.7,0-20.5-1.1-32.2-3.2c-5.7-0.8-108.1-15.3-158.3-56.4c-7.7-6.3-13.9-13.1-18.3-20
			c-21.4-33.6-20.5-75.7-16-105.2c3.1-20.6,8-34.7,8.2-35.2l0.1-0.3l0.2-0.3c0.4-0.7,9.9-18.5,29.1-40l0.2-0.3
			c30.3-33.8,82-73.9,156.9-73.9c4.6,0,9.3,0.2,13.9,0.5c48.7,3.2,86.8,16.3,113.3,39.1c31.4,27,39.9,61.6,41.5,85.9
			c0.5,7.9,2.5,49.5-8.7,89.4c-12.5,44.3-37.1,69.3-71.2,72.4c-2.5,0.2-5,0.4-7.5,0.6c2,0.1,4,0.1,6.1,0.1l4.3,0l0,4.3
			c0,0.4-0.2,11.1-8.1,21.7C827.9,564.4,812.9,575.8,781.7,575.8z"/>
		<g>
			<path d="M751.6,245.2c4.5,0,9,0.1,13.6,0.4c53.8,3.5,88.5,18.9,110.8,38c32.6,28,38.8,64,40,82.9c2.1,31.9,0.4,150.3-76,157.3
				c-10.4,0.9-19.8,1.3-28.3,1.3c-17.2,0-30.8-1.6-41.1-3.7c-10.6-2.1-17.8-4.8-21.9-6.6c0,0-0.1,0-0.1,0c-0.3-0.2-0.6-0.3-0.9-0.4
				c-0.5-0.2-0.9-0.4-1.2-0.6c-0.2-0.1-0.4-0.2-0.5-0.3c-0.4-0.2-0.7-0.4-0.9-0.5c2.9,1.7,13.3,7.4,31.4,12.2
				c15.2,4.1,36,7.6,62.5,7.9c0,0-0.3,38.4-57.2,38.4c-9,0-19.4-1-31.5-3.2c0,0-106.1-14.4-156.3-55.5c-7.1-5.8-13-12.1-17.4-19
				c-20.7-32.5-19.8-73.6-15.4-102.2c3.1-20.4,8-34.5,8-34.5s9.4-17.8,28.5-39.1c0,0,0,0,0,0C626.5,285.7,677.5,245.2,751.6,245.2
				 M751.6,236.6c-34.7,0-67.7,8.5-98.1,25.3c-22.5,12.4-43.3,29.1-61.7,49.7l0,0l-0.5,0.6c-19.6,21.9-29.3,40.1-29.7,40.8l-0.3,0.6
				l-0.2,0.6c-0.2,0.6-5.2,15-8.4,36c-4.6,30.2-5.5,73.4,16.7,108.1c4.6,7.3,11.1,14.4,19.2,21c21.7,17.8,55.4,32.9,100.2,44.8
				c31.8,8.5,57.4,12.1,60.2,12.5c11.9,2.2,23,3.3,32.9,3.3c32.9,0,49-12.3,56.8-22.6c8.6-11.5,9-23,9-24.2l0-1.7
				c17-3,31.6-11.4,43.4-25.1c10.7-12.3,19-29,24.8-49.5c11.4-40.6,9.4-82.8,8.9-90.9c-1.6-25.1-10.4-60.9-43-88.8
				c-27.2-23.3-66.1-36.8-115.8-40.1C761.1,236.8,756.3,236.6,751.6,236.6L751.6,236.6z"/>
		</g>
	</g>
	<path class="st2" d="M750.2,568.3c0,0-106.1-14.4-156.3-55.5l17.9-17.5c8.5,13.6,85.3,35.9,85.3,35.9c-9.9,2.3-76-17.1-77.8-17.6
		c1.8,0.8,59.6,27,113.8,39.5c55,12.7,88.6-11.9,88.6-11.9c-15.8,0.8-35.7-10-45.3-16c15.2,4.1,36,7.6,62.5,7.9
		C838.9,533.1,838.5,584.6,750.2,568.3z"/>
	<path class="st1" d="M852.6,418.2c0.5-1.4,28.2-74.4-23.7-99.4c0,0,21.2,54.4-18.8,70.5c0,0,17.2-22,3-68.8
		c0.4,1.9,12.8,64.4-42.4,74.7c-56,10.5-82.5-48.3-162.1-6l-47.5,2.4c3.1-20.4,8-34.5,8-34.5s9.4-17.8,28.5-39.1c0,0,0,0,0,0
		c1.6-1.2,132.1-91.9,228.1-31.5C921.6,346.7,853.8,417,852.6,418.2z"/>
	<g>
		<path class="st0" d="M296.6,694.8c-27.5,0-56.1-6.2-85-18.3l-0.3-0.1l-0.3-0.2c-1.4-0.8-21-12.8-37.1-32.3
			c3,5.6,6.8,11.2,11.4,16.8l7,8.4l-10.9-1.5c-1.1-0.1-27.2-3.9-52.2-31.8c-14.5-16.2-25.7-37.2-33.2-62.5
			c-9.3-31.3-13.1-69.3-11.1-112.9c0.9-19.2,4.4-36.9,10.6-52.6l0.2-0.6c8.6-21.8,22.4-40.3,41-55.1c44.7-35.5,108.7-43,154.5-43
			c54.1,0,106.8,10.6,128.9,20.6c38.1,17.3,65.2,41.5,79.6,59.8c-1.6-4.8-4.1-10.1-7.9-15.5l-1.2-1.8l0.7-2
			c0.1-0.3,9.6-28.2,41-28.2c13.6,0,29.4,5.3,46.9,15.7c6.2,3.7,11.8,8.2,16.8,13.3c13.6,14.2,22.2,33.6,24.8,56.1
			c2.3,19.8-0.2,40.6-7,58.5c-8.7,23-22.9,37-38.9,38.4c-2.6,0.5-5,0.8-7.4,0.8c-23,0-29.9-25.1-30.3-38.4l0-0.3l0-0.3
			c0-0.1,0.2-1.4,0.3-3.7c-0.7,3.3-1.6,6.6-2.8,9.7c-2.3,5.9-24,58.8-65.5,109.2c-22.6,27.4-47,49.2-72.6,64.8
			C364.9,685,331.3,694.8,296.6,694.8z"/>
		<g>
			<path d="M291.3,313.4c56,0,107,11.1,127.1,20.2c51.3,23.2,80.9,58.4,87.8,73.8c0.4,0.9,0.6,1.4,0.6,1.4s2.1-18.1-11.5-37.4
				c0,0,8.3-25.3,37-25.3c11.4,0,26,4,44.7,15.1c6,3.6,11.3,7.9,15.9,12.6c45,46.9,21.4,142.6-18.6,145.8c-2.4,0.5-4.7,0.8-6.8,0.8
				c-24.9,0-26-34.3-26-34.3s3.9-33.3-12.5-54.8c0.6,1.6,11.4,34.4,1.7,58.7c-8.5,21.3-86.4,200.2-234,200.2
				c-25.7,0-53.5-5.4-83.3-18c0,0-54.5-32.6-56.1-78.2c0,0-2.6,36.2,24.9,69.1c0,0-101.3-13.6-92.8-202.8
				c0.9-19.6,4.6-36.8,10.5-51.8l0,0c8.8-22.3,22.6-39.8,39.7-53.3C179.6,323.6,237.8,313.4,291.3,313.4 M291.3,304.9
				c-46.5,0-111.4,7.6-157.1,43.9c-19.2,15.2-33.4,34.4-42.3,56.9l-0.4,1l0,0c-6.2,16.1-9.8,34.1-10.7,53.5
				c-2,44.1,1.8,82.6,11.3,114.3c7.7,25.9,19.2,47.4,34.1,64.1c26.1,29.1,53.6,33.1,54.8,33.2l20.1,2.7c4.4,3.1,7.3,4.9,7.8,5.2
				l0.5,0.3l0.6,0.2c29.4,12.4,58.6,18.7,86.7,18.7c35.4,0,69.8-9.9,102.1-29.5c26-15.8,50.8-37.9,73.7-65.7
				c34.3-41.6,55.1-85,62.9-102.7c0.5,1.8,1.1,3.6,1.8,5.5c5.8,14.5,16.5,22.6,30.3,22.6c2.6,0,5.3-0.3,8-0.8
				c17.6-1.7,33-16.6,42.3-41.1c7-18.5,9.6-40,7.2-60.5c-2.7-23.5-11.7-43.7-26-58.6c-5.2-5.4-11.1-10.1-17.6-14
				c-18.1-10.8-34.6-16.3-49-16.3c-18,0-29.3,8.4-35.6,15.5c-6.7,7.4-9.2,14.9-9.5,15.7l-0.1,0.4c-0.7-0.7-1.5-1.4-2.3-2.1
				c-12.4-11.5-33.3-28-62.9-41.4C399.4,315.7,346,304.9,291.3,304.9L291.3,304.9z"/>
		</g>
	</g>
	<path class="st2" d="M574.3,519.9c-31.4,6.7-32.8-33.6-32.8-33.6s4-33.3-12.5-54.8c0.3,0.8,11.6,34.1,1.7,58.8
		c-9.9,25-115.6,267.2-317.4,182.2c0,0-54.5-32.6-56.1-78.2c0,0-2.6,36.2,24.9,69.1c0,0-101.3-13.6-92.8-202.8
		c0.9-19.6,4.6-36.8,10.5-51.8c-15.2,163.8,40.3,194.7,40.3,194.7c-8.8-44.4,1.4-82.4,1.4-82.4s15.7,73.2,140.1,98.6
		C405.9,645,492.4,533.5,511,493.5c18.6-40.1,12.3-68.6,12.3-68.6c41.6,6.1,35,93.9,61.3,73.3c35.9-46.6,22-95.7,8.2-124
		C637.9,421,614.2,516.7,574.3,519.9z"/>
	<path class="st1" d="M370.1,483.2c63.5-39.5,101.8-21,103.5-21.8c-15.9,15.8-38.5,50.6-170.6,54.8
		c-132.1,4.2-171.4-34.9-175.2-76.6c-2.6-28.8-6-57,11.6-84.1c82.1-65.2,239.6-39.6,278.9-21.8c51.3,23.2,80.9,58.4,87.8,73.8
		c0.4,0.9,0.6,1.4,0.6,1.4c-77.9-47.9-126.7,12.3-126.7,12.3c108.2-17,124.8,3.4,124.8,3.4C430.1,417.5,370.1,483.2,370.1,483.2z"/>
	<g>
		<path class="st3" d="M174.5,413c1.6-4.1,3.9-7.8,6.5-11.4c2.6-3.6,5.5-6.9,8.6-10.1c6.3-6.3,13.3-11.8,20.9-16.4
			c1.9-1.1,3.8-2.3,5.8-3.3c2-1,3.9-2.1,5.9-3c2-0.9,4-1.9,6.1-2.7l6.2-2.4c4.2-1.5,8.4-2.9,12.7-4c2.1-0.6,4.3-1.2,6.4-1.6
			c2.2-0.5,4.3-1,6.5-1.5c17.4-3.3,35-4.5,52.5-3.7c17.5,0.8,34.8,3.3,51.7,7.6c-17.4-0.4-34.6-0.7-51.7-0.1
			c-17.1,0.6-34,2.4-50.6,5.6c-2.1,0.4-4.1,0.9-6.2,1.3c-1,0.2-2.1,0.4-3.1,0.7l-3.1,0.8c-4.1,1-8.1,2.3-12.1,3.5
			c-8,2.6-15.8,5.7-23.3,9.5c-7.5,3.7-14.7,8.2-21.5,13.3C186,400.1,179.6,405.9,174.5,413z"/>
	</g>
	<path class="st2" d="M840,523.9c-31.3,2.9-54,0.7-69.4-2.4c-10.6-2.1-17.8-4.8-21.9-6.6c0,0-0.1,0-0.1,0c-0.3-0.2-0.6-0.3-0.9-0.4
		c-0.5-0.2-0.9-0.4-1.2-0.6c-0.2-0.1-0.4-0.2-0.5-0.3c-0.4-0.2-0.7-0.4-0.9-0.5c-0.3-0.2-0.5-0.3-0.5-0.3
		c117.8,7,113.3-49.6,113.3-49.6c-49.6,11.5-99.2-21.3-100.8-22.4c2.6,0.7,129.2,35.3,145.7-45.9c8.4-41.3-8.2-81.5-26.7-111.2
		c32.6,28,38.8,64,40,82.9C918.1,398.5,916.5,516.9,840,523.9z"/>
	<g>
		<path class="st3" d="M613,352.5c1.5-3.2,3.3-6.3,5.2-9.2c1.9-3,4-5.8,6.2-8.6c4.4-5.6,9.4-10.7,14.7-15.5
			c5.4-4.7,11.1-9.1,17.2-12.8c3.1-1.9,6.2-3.7,9.4-5.3c0.8-0.4,1.6-0.8,2.4-1.2l2.5-1.1c1.6-0.7,3.3-1.5,5-2.2
			c13.4-5.4,27.7-8.4,42-8.9c14.3-0.3,28.6,1.7,41.9,6.2c-14.1-0.6-27.8-0.4-41.3,1.3c-13.5,1.8-26.6,5.2-39,10.2
			c-1.6,0.6-3.1,1.3-4.6,2l-2.3,1l-2.3,1.1c-3.1,1.4-6,3-9,4.6c-5.9,3.3-11.6,7-17.1,10.9c-5.5,4-10.9,8.2-16,12.8
			C622.6,342.5,617.7,347.3,613,352.5z"/>
	</g>
	<g>
		<path class="st3" d="M559.1,600.4c1.2,13.2,0.9,26.5-0.2,39.7c-1.1,13.2-3,26.3-5.9,39.3c-0.8,3.2-1.5,6.5-2.4,9.7
			c-0.9,3.2-1.8,6.4-2.8,9.6c-2,6.4-4.3,12.7-7,18.8c-2.7,6.1-5.8,12.1-9.5,17.7c-1.8,2.8-3.8,5.5-6,8.1c-1.1,1.3-2.2,2.5-3.4,3.7
			c-1.2,1.1-2.4,2.3-3.7,3.4c0.8-1.5,1.7-2.9,2.5-4.3l2.3-4.3c1.4-2.9,2.8-5.8,4-8.8c2.5-6,4.7-12,6.6-18.2
			c1.9-6.2,3.7-12.4,5.3-18.6c0.8-3.1,1.6-6.3,2.3-9.4c0.8-3.1,1.5-6.3,2.2-9.5c2.8-12.7,5.3-25.4,7.8-38.2
			C554,626.3,556.4,613.4,559.1,600.4z"/>
	</g>
	<path class="st2" d="M569.6,809.6c0,0,0.1,0,0.3,0.1C568.4,812.7,569.6,809.6,569.6,809.6z"/>
	<g>
		<path class="st3" d="M638.3,595.8c2.7,12.4,4,24.8,5,37.3c0.8,12.5,1.1,25.1,0.7,37.6c-0.1,3.1-0.3,6.3-0.5,9.4
			c-0.2,3.1-0.4,6.3-0.8,9.4c-0.6,6.3-1.4,12.5-2.5,18.8c-1.1,6.2-2.5,12.4-4.3,18.5c-1.9,6.1-4.1,12.1-7.4,17.5
			c2.6-12.3,3.4-24.6,4.2-36.9c0.4-6.2,0.7-12.3,0.9-18.5l0.4-9.3c0.1-3.1,0.3-6.2,0.3-9.3c0.4-12.4,0.8-24.8,1.4-37.2
			C636.3,620.8,637,608.3,638.3,595.8z"/>
	</g>
	<path class="st1" d="M540.2,355.3c0,0,41.5,9.5,42,57s-35.8-24.6-54.5-32.7S517.1,356.3,540.2,355.3z"/>
	<g>
		<path class="st3" d="M534.5,368.6c2.2-0.2,4.3,0,6.4,0.4c2.1,0.4,4.1,1,6,1.8c3.8,1.6,7.5,3.8,10.6,6.8c1.6,1.5,3,3.1,4.3,4.9
			c1.2,1.8,2.3,3.7,3.1,5.8c0.8,2.1,1.3,4.3,1.4,6.4c0.1,2.2-0.2,4.4-1,6.5c-1.3-1.8-2.3-3.4-3.5-4.9c-1.2-1.5-2.3-2.9-3.5-4.2
			c-2.4-2.6-4.8-5-7.4-7.4l-8-7.4C540.2,374.6,537.4,372,534.5,368.6z"/>
	</g>
</g>
</svg>
